<svg width="54" height="54" viewBox="0 0 54 54" fill="none" xmlns="http://www.w3.org/2000/svg">
<g filter="url(#filter0_d_35_31)">
<path d="M5 6C5 3.23858 7.23858 1 10 1H44C46.7614 1 49 3.23858 49 6V40C49 42.7614 46.7614 45 44 45H10C7.23858 45 5 42.7614 5 40V6Z" fill="#CAF2FF"/>
<path fill-rule="evenodd" clip-rule="evenodd" d="M10 1C7.23858 1 5 3.23858 5 6V40C5 42.419 6.71776 44.4367 9 44.9V40.625C9 34.7953 20.6703 31.875 26.5 31.875C32.3297 31.875 44 34.7953 44 40.625V45C46.7614 45 49 42.7614 49 40V6C49 3.23858 46.7614 1 44 1H10ZM17.75 18.75C17.75 13.9156 21.6656 10 26.5 10C31.3344 10 35.25 13.9156 35.25 18.75C35.25 23.5734 31.3344 27.5 26.5 27.5C21.6656 27.5 17.75 23.5734 17.75 18.75Z" fill="#2273BB"/>
<path d="M5 40V6C5 3.23858 7.23858 1 10 1H44C46.7614 1 49 3.23858 49 6V40C49 42.7614 46.7614 45 44 45M5 40C5 42.7614 7.23858 45 10 45H44M5 40C5 42.419 6.71776 44.4367 9 44.9V40.625C9 34.7953 20.6703 31.875 26.5 31.875C32.3297 31.875 44 34.7953 44 40.625V45M26.5 10C21.6656 10 17.75 13.9156 17.75 18.75C17.75 23.5734 21.6656 27.5 26.5 27.5C31.3344 27.5 35.25 23.5734 35.25 18.75C35.25 13.9156 31.3344 10 26.5 10Z" stroke="black"/>
</g>
<defs>
<filter id="filter0_d_35_31" x="0.5" y="0.5" width="53" height="53.0117" filterUnits="userSpaceOnUse" color-interpolation-filters="sRGB">
<feFlood flood-opacity="0" result="BackgroundImageFix"/>
<feColorMatrix in="SourceAlpha" type="matrix" values="0 0 0 0 0 0 0 0 0 0 0 0 0 0 0 0 0 0 127 0" result="hardAlpha"/>
<feOffset dy="4"/>
<feGaussianBlur stdDeviation="2"/>
<feComposite in2="hardAlpha" operator="out"/>
<feColorMatrix type="matrix" values="0 0 0 0 0 0 0 0 0 0 0 0 0 0 0 0 0 0 0.25 0"/>
<feBlend mode="normal" in2="BackgroundImageFix" result="effect1_dropShadow_35_31"/>
<feBlend mode="normal" in="SourceGraphic" in2="effect1_dropShadow_35_31" result="shape"/>
</filter>
</defs>
</svg>
