<svg width="105" height="100" viewBox="0 0 105 100" fill="none" xmlns="http://www.w3.org/2000/svg">
<path fill-rule="evenodd" clip-rule="evenodd" d="M96.25 5.55556H8.75C7.13915 5.55556 5.83333 6.79922 5.83333 8.33333V91.6667C5.83333 93.2008 7.13918 94.4444 8.75 94.4444H96.25C97.8609 94.4444 99.1667 93.2008 99.1667 91.6667V8.33333C99.1667 6.79919 97.8609 5.55556 96.25 5.55556ZM8.75 0C3.91752 0 0 3.73097 0 8.33333V91.6667C0 96.2692 3.91752 100 8.75 100H96.25C101.083 100 105 96.2692 105 91.6667V8.33333C105 3.73097 101.083 0 96.25 0H8.75Z" fill="black"/>
<path d="M67.1745 17.7083H75.9245V62.1528H67.1745V17.7083Z" fill="black"/>
<path fill-rule="evenodd" clip-rule="evenodd" d="M73.0078 20.4861H70.0912V59.375H73.0078V20.4861ZM67.1745 17.7083V62.1528H75.9245V17.7083H67.1745Z" fill="black"/>
<path d="M81.7579 26.0417H90.5079V53.8194H81.7579V26.0417Z" fill="black"/>
<path fill-rule="evenodd" clip-rule="evenodd" d="M87.5912 28.8194H84.6745V51.0417H87.5912V28.8194ZM81.7579 26.0417V53.8194H90.5079V26.0417H81.7579Z" fill="black"/>
<path d="M38.0079 62.1528H29.2579V17.7083H38.0079V62.1528Z" fill="black"/>
<path fill-rule="evenodd" clip-rule="evenodd" d="M32.1745 59.375H35.0912V20.4861H32.1745V59.375ZM38.0079 62.1528V17.7083H29.2579V62.1528H38.0079Z" fill="black"/>
<path d="M23.4245 53.8194H14.6745V26.0417H23.4245V53.8194Z" fill="black"/>
<path fill-rule="evenodd" clip-rule="evenodd" d="M17.5912 51.0417H20.5078V28.8194H17.5912V51.0417ZM23.4245 53.8194V26.0417H14.6745V53.8194H23.4245ZM93.4245 42.7083H81.7578V37.1528H93.4245V42.7083Z" fill="black"/>
<path fill-rule="evenodd" clip-rule="evenodd" d="M21.9661 42.7083H11.7578V37.1528H21.9661V42.7083ZM61.3411 42.7083H43.8411V37.1528H61.3411V42.7083Z" fill="black"/>
<path d="M45.0757 74.2188V87.7604H42.1093V74.2188H45.0757ZM50.8108 80.0037V82.1801H44.2649V80.0037H50.8108ZM51.503 74.2188V76.4044H44.2649V74.2188H51.503Z" fill="black"/>
<path d="M56.1899 74.2188V87.7604H53.2235V74.2188H56.1899ZM61.925 80.0037V82.1801H55.3791V80.0037H61.925ZM62.6171 74.2188V76.4044H55.3791V74.2188H62.6171Z" fill="black"/>
</svg>
