<svg width="30" height="30" viewBox="0 0 30 30" fill="none" xmlns="http://www.w3.org/2000/svg">
<path d="M5.2 23.4016H11.136C11.3202 23.4027 11.5029 23.3674 11.6735 23.2977C11.844 23.2281 11.9992 23.1255 12.13 22.9957L21.818 13.2966L25.794 9.40568C25.9252 9.27557 26.0294 9.12077 26.1004 8.95022C26.1715 8.77967 26.2081 8.59673 26.2081 8.41197C26.2081 8.22721 26.1715 8.04427 26.1004 7.87372C26.0294 7.70316 25.9252 7.54837 25.794 7.41826L19.858 1.414C19.7279 1.28282 19.573 1.17869 19.4024 1.10764C19.2318 1.03658 19.0488 1 18.864 1C18.6792 1 18.4962 1.03658 18.3256 1.10764C18.155 1.17869 18.0001 1.28282 17.87 1.414L13.922 5.37485L4.206 15.074C4.07625 15.2048 3.97359 15.3599 3.90392 15.5304C3.83425 15.701 3.79893 15.8836 3.8 16.0677V22.002C3.8 22.3732 3.9475 22.7292 4.21005 22.9917C4.4726 23.2542 4.8287 23.4016 5.2 23.4016ZM18.864 4.38114L22.826 8.34199L20.838 10.3294L16.876 6.36856L18.864 4.38114ZM6.6 16.6416L14.902 8.34199L18.864 12.3028L10.562 20.6024H6.6V16.6416ZM27.6 26.2008H2.4C2.0287 26.2008 1.6726 26.3483 1.41005 26.6107C1.1475 26.8732 1 27.2292 1 27.6004C1 27.9716 1.1475 28.3276 1.41005 28.5901C1.6726 28.8525 2.0287 29 2.4 29H27.6C27.9713 29 28.3274 28.8525 28.59 28.5901C28.8525 28.3276 29 27.9716 29 27.6004C29 27.2292 28.8525 26.8732 28.59 26.6107C28.3274 26.3483 27.9713 26.2008 27.6 26.2008Z" fill="white" stroke="#163152"/>
</svg>
